<?xml version="1.0" encoding="utf-8"?>
<!-- Generator: Adobe Illustrator 24.1.1, SVG Export Plug-In . SVG Version: 6.00 Build 0)  -->
<svg version="1.1" id="Layer_1" xmlns="http://www.w3.org/2000/svg" xmlns:xlink="http://www.w3.org/1999/xlink" x="0px" y="0px"
	 viewBox="0 0 512 512" style="enable-background:new 0 0 512 512;" xml:space="preserve">
<g>
	<path d="M511.3,193.6c-1.7-4.9-6.4-8.3-11.6-8.3H326.6l-59-167c-1.7-4.9-6.4-8.2-11.6-8.2c-5.2,0-9.8,3.3-11.6,8.2l-59,167H12.3
		c-5.2,0-9.9,3.3-11.6,8.3c-1.7,4.9-0.1,10.4,4,13.7l135.2,107L79.3,485.4c-1.7,4.9-0.2,10.3,3.8,13.6c4,3.3,9.7,3.7,14.1,1
		L256,404.9l158.7,95.2c1.9,1.2,4.2,1.7,6.3,1.7c2.7,0,5.5-0.9,7.8-2.8c4-3.3,5.5-8.7,3.8-13.6l-60.5-171.2l135.2-107
		C511.4,204,513,198.5,511.3,193.6z"/>
</g>
</svg>
